<svg width="13" height="13" viewBox="0 0 13 13" fill="none" xmlns="http://www.w3.org/2000/svg">
<path id="shape" d="M12 6.1568L6.79945 11.0616C6.16235 11.6624 5.29824 12 4.39724 12C3.49624 12 2.63213 11.6624 1.99503 11.0616C1.35792 10.4607 1 9.64574 1 8.79598C1 7.94622 1.35792 7.13126 1.99503 6.53039L7.19558 1.62562C7.62031 1.22504 8.19638 1 8.79705 1C9.39772 1 9.97379 1.22504 10.3985 1.62562C10.8233 2.0262 11.0619 2.56951 11.0619 3.13601C11.0619 3.70252 10.8233 4.24583 10.3985 4.64641L5.19232 9.55117C4.97995 9.75146 4.69192 9.86399 4.39158 9.86399C4.09125 9.86399 3.80321 9.75146 3.59084 9.55117C3.37848 9.35088 3.25917 9.07923 3.25917 8.79598C3.25917 8.51272 3.37848 8.24107 3.59084 8.04078L8.39527 3.51495" stroke="#979595" stroke-linecap="round" stroke-linejoin="round"/>
</svg>
