<svg width="23" height="20" viewBox="0 0 23 20" fill="none" xmlns="http://www.w3.org/2000/svg">
<path id="Rectangle 2617" d="M5 1H18C19.8856 1 20.8284 1 21.4142 1.58579C22 2.17157 22 3.11438 22 5V10.6C22 12.4856 22 13.4284 21.4142 14.0142C20.8284 14.6 19.8856 14.6 18 14.6H10.1757C9.67376 14.6 9.42281 14.6 9.18199 14.6607C8.94117 14.7215 8.72025 14.8405 8.2784 15.0786L3.94863 17.4113C2.63264 18.1204 1.97464 18.4749 1.48732 18.1839C1 17.8929 1 17.1455 1 15.6506V14.6V5C1 3.11438 1 2.17157 1.58579 1.58579C2.17157 1 3.11438 1 5 1Z" stroke="#BAB9B9" stroke-width="1.5" stroke-linecap="round"/>
</svg>
