<svg width="12" height="15" viewBox="0 0 12 15" fill="none" xmlns="http://www.w3.org/2000/svg">
<g id="Group 35">
<path id="Rectangle 11" d="M1.47705 4.8154L2.23321 11.6209C2.32724 12.4671 2.37426 12.8903 2.65902 13.1451C2.94378 13.4 3.36951 13.4 4.22098 13.4H7.31773C8.1692 13.4 8.59494 13.4 8.8797 13.1451C9.16446 12.8903 9.21147 12.4671 9.3055 11.6209L10.0617 4.8154" stroke="#A43434" stroke-width="1.5" stroke-linecap="round" stroke-linejoin="round"/>
<path id="Rectangle 14" d="M3.86154 2.90769V2.90769C3.86154 2.05433 3.86154 1.62764 4.10507 1.34597C4.13669 1.30939 4.17093 1.27516 4.20751 1.24353C4.48918 1 4.91587 1 5.76923 1V1C6.6226 1 7.04928 1 7.33095 1.24353C7.36753 1.27516 7.40177 1.30939 7.43339 1.34597C7.67692 1.62764 7.67692 2.05433 7.67692 2.90769V2.90769M10.5385 2.90769H1" stroke="#A43434" stroke-width="1.5" stroke-linecap="round" stroke-linejoin="round"/>
</g>
</svg>
