<svg width="15" height="15" viewBox="0 0 15 15" fill="none" xmlns="http://www.w3.org/2000/svg">
<g id="Group 37">
<path id="Rectangle 40" d="M14 14.0339V13.8939C14 12.6225 14 11.9868 13.7215 11.5159C13.55 11.2259 13.308 10.9839 13.0181 10.8125C12.5471 10.5339 11.9114 10.5339 10.64 10.5339H8.86C7.58857 10.5339 6.95286 10.5339 6.48192 10.8125C6.19195 10.9839 5.95 11.2259 5.77852 11.5159C5.5 11.9868 5.5 12.6225 5.5 13.8939V14.0339" stroke="#979595" stroke-linecap="round" stroke-linejoin="round"/>
<path id="Rectangle 41" d="M1 11.5339V11.1939C1 10.1116 1 9.57036 1.20394 9.15406C1.39921 8.75546 1.72153 8.43315 2.12012 8.23788C2.53642 8.03394 3.07762 8.03394 4.16 8.03394H4.5" stroke="#979595" stroke-linecap="round" stroke-linejoin="round"/>
<path id="Ellipse 80" d="M12.3334 6.20048C12.3334 7.48914 11.2888 8.53381 10.0001 8.53381C8.71143 8.53381 7.66676 7.48914 7.66676 6.20048C7.66676 4.91182 8.71143 3.86715 10.0001 3.86715C11.2888 3.86715 12.3334 4.91182 12.3334 6.20048Z" stroke="#979595"/>
<path id="Ellipse 81" d="M6.7221 2.04312C6.30408 1.4144 5.58926 1.00004 4.77766 1.00004C3.48899 1.00004 2.44432 2.04471 2.44432 3.33337C2.44432 4.34932 3.09362 5.21362 3.99988 5.53394" stroke="#979595" stroke-linecap="round"/>
</g>
</svg>
