<svg width="24" height="24" viewBox="0 0 24 24" fill="none" xmlns="http://www.w3.org/2000/svg">
<g id="Group 36">
<path id="Rectangle 40" d="M23 23V21.55C23 20.5733 23 20.085 22.8874 19.6856C22.6041 18.6811 21.8189 17.8959 20.8143 17.6126C20.415 17.5 19.9267 17.5 18.95 17.5H11.7722C10.7955 17.5 10.3072 17.5 9.90785 17.6126C8.90325 17.8959 8.11813 18.6811 7.8348 19.6856C7.72217 20.085 7.72217 20.5733 7.72217 21.55V23" stroke="white" stroke-width="2" stroke-linecap="round" stroke-linejoin="round"/>
<path id="Rectangle 41" d="M1 18.7223V15.9C1 15.0633 1 14.6449 1.08289 14.2997C1.34624 13.2027 2.20272 12.3462 3.29966 12.0829C3.64493 12 4.06328 12 4.9 12H5.88891" stroke="white" stroke-width="2" stroke-linecap="round" stroke-linejoin="round"/>
<path id="Ellipse 80" d="M19.9445 8.94442C19.9445 11.307 18.0293 13.2222 15.6667 13.2222C13.3042 13.2222 11.3889 11.307 11.3889 8.94442C11.3889 6.58186 13.3042 4.66663 15.6667 4.66663C18.0293 4.66663 19.9445 6.58186 19.9445 8.94442Z" stroke="white" stroke-width="2"/>
<path id="Ellipse 81" d="M10.7777 2.68707C10.0611 1.67016 8.83568 0.999939 7.44436 0.999939C5.23521 0.999939 3.44434 2.68964 3.44434 4.774C3.44434 6.41725 4.55742 7.81521 6.11102 8.33331" stroke="white" stroke-width="2" stroke-linecap="round"/>
</g>
</svg>
