<svg width="19" height="19" viewBox="0 0 19 19" fill="none" xmlns="http://www.w3.org/2000/svg">
<path id="Vector 52" d="M15.7351 16.499C11.335 20.8991 -2.09995 7.46408 2.30008 3.06406L3.53159 1.8325C4.45819 0.905879 6.01068 1.10583 6.67224 2.237L7.20657 3.15061C7.5954 3.81545 7.56792 4.64449 7.13591 5.28212L6.77355 5.81695C6.37013 6.41239 6.44613 7.21038 6.9547 7.71896L9.01742 9.7817L11.0803 11.8443C11.5889 12.3529 12.3868 12.4289 12.9823 12.0254L13.5169 11.6633C14.1545 11.2313 14.9835 11.2038 15.6483 11.5926L16.562 12.1269C17.6932 12.7884 17.8932 14.3409 16.9665 15.2675L15.7351 16.499Z" stroke="#979595" stroke-width="1.5" stroke-linecap="round" stroke-linejoin="round"/>
</svg>
