<svg width="16" height="18" viewBox="0 0 16 18" fill="none" xmlns="http://www.w3.org/2000/svg">
<g id="Group 88">
<path id="Rectangle 15" d="M12.6154 7.80762H3C2.05719 7.80762 1.58579 7.80762 1.29289 8.10051C1 8.3934 1 8.86481 1 9.80762V15.0908C1 16.0336 1 16.505 1.29289 16.7979C1.58579 17.0908 2.05719 17.0908 3 17.0908H12.6154C13.5582 17.0908 14.0296 17.0908 14.3225 16.7979C14.6154 16.505 14.6154 16.0336 14.6154 15.0908V9.80762C14.6154 8.86481 14.6154 8.3934 14.3225 8.10051C14.0296 7.80762 13.5582 7.80762 12.6154 7.80762Z" stroke="#979595" stroke-width="1.5"/>
<path id="Rectangle 16" d="M4.71338 7.18881C4.71338 7.18881 4.71338 6.02835 4.71338 4.09441C4.71338 1.7736 5.35541 1 7.80778 1C10.2602 1 10.9022 1.7736 10.9022 4.09441V7.18881" stroke="#979595" stroke-width="1.5"/>
</g>
</svg>
