<svg width="18" height="20" viewBox="0 0 18 20" fill="none" xmlns="http://www.w3.org/2000/svg">
<g id="profile icon">
<path id="Rectangle 40" d="M16.6522 19V16.2217C16.6522 15.5706 16.6522 15.2451 16.5771 14.9788C16.3882 14.3091 15.8648 13.7857 15.1951 13.5968C14.9288 13.5217 14.6033 13.5217 13.9522 13.5217H3.7C3.04891 13.5217 2.72337 13.5217 2.45712 13.5968C1.78739 13.7857 1.26397 14.3091 1.07509 14.9788C1 15.2451 1 15.5706 1 16.2217V19" stroke="#BAB9B9" stroke-width="1.5" stroke-linecap="round" stroke-linejoin="round"/>
<path id="Rectangle 41" d="M13.1304 5.30435C13.1304 7.68157 11.2033 9.6087 8.82608 9.6087C6.44885 9.6087 4.52173 7.68157 4.52173 5.30435C4.52173 2.92712 6.44885 1 8.82608 1C11.2033 1 13.1304 2.92712 13.1304 5.30435Z" stroke="#BAB9B9" stroke-width="1.5" stroke-linecap="round" stroke-linejoin="round"/>
</g>
</svg>
